<svg width="27" height="24" viewBox="0 0 27 24" fill="none" xmlns="http://www.w3.org/2000/svg">
<path d="M9.82982 7.59009C10.6468 7.59509 11.2668 7.82809 11.6718 8.28209C12.0548 8.71309 12.2388 9.33609 12.2188 10.1321L12.2048 10.1931C12.1921 10.2216 12.1713 10.2458 12.145 10.2627C12.1187 10.2796 12.0881 10.2884 12.0568 10.2881H10.3978C10.3458 10.2878 10.2959 10.2673 10.2588 10.2309C10.2216 10.1945 10.2001 10.1451 10.1988 10.0931C10.2002 9.67042 10.0702 9.43375 9.80882 9.38309L9.68882 9.37209C9.34682 9.37209 9.12482 9.58309 9.11882 9.95109C9.11182 10.3611 9.34382 10.7341 10.0038 11.3741C10.8718 12.1901 11.2208 12.9131 11.2038 13.8671C11.1768 15.4111 10.1268 16.4101 8.53082 16.4101C7.71582 16.4101 7.09282 16.1911 6.67782 15.7611C6.25782 15.3241 6.06582 14.6831 6.10582 13.8551C6.1077 13.8129 6.12517 13.773 6.15482 13.7431C6.18485 13.714 6.22505 13.6979 6.26682 13.6981H7.98282C8.00665 13.6996 8.03002 13.7053 8.05182 13.7151C8.09124 13.7356 8.12103 13.7708 8.13482 13.8131C8.14016 13.8331 8.14082 13.8531 8.13682 13.8731C8.11782 14.1711 8.17082 14.3941 8.28782 14.5181C8.32789 14.5594 8.37643 14.5917 8.4301 14.6125C8.48378 14.6334 8.54133 14.6425 8.59882 14.6391C8.91582 14.6391 9.10182 14.4141 9.10882 14.0241C9.11482 13.6871 9.00682 13.3901 8.42682 12.7921C7.67582 12.0581 7.00282 11.3001 7.02382 10.1081C7.02639 9.77442 7.09626 9.4447 7.22925 9.13868C7.36225 8.83265 7.55563 8.55661 7.79782 8.32709C8.31182 7.84509 9.01382 7.59009 9.82982 7.59009ZM4.04682 7.61809C4.79382 7.61209 5.38082 7.84209 5.78882 8.30309C6.22082 8.79009 6.43982 9.52409 6.44082 10.4851C6.44029 10.5273 6.42307 10.5677 6.3929 10.5973C6.36274 10.6269 6.32209 10.6433 6.27982 10.6431H4.47882C4.44739 10.6416 4.41754 10.6288 4.39482 10.6071C4.37319 10.5839 4.36075 10.5537 4.35982 10.5221C4.34582 9.89909 4.17182 9.57609 3.82782 9.53809L3.75682 9.53409C3.06682 9.53509 2.65982 10.4721 2.44382 10.9921C2.13841 11.7196 1.99312 12.5044 2.01782 13.2931C2.03282 13.6591 2.09182 14.1731 2.43782 14.3861C2.74582 14.5751 3.18482 14.4501 3.45082 14.2401C3.71582 14.0311 3.92982 13.6691 4.01982 13.3391C4.03315 13.2924 4.03349 13.2597 4.02082 13.2411C4.01415 13.2337 4.00349 13.2287 3.98882 13.2261L3.48482 13.2221C3.46037 13.2214 3.43632 13.2157 3.41414 13.2054C3.39196 13.195 3.37212 13.1803 3.35582 13.1621C3.3429 13.1481 3.33423 13.1308 3.33082 13.1121C3.32549 13.0938 3.32549 13.0744 3.33082 13.0561L3.64682 11.6821C3.65609 11.6463 3.67612 11.6143 3.70421 11.5903C3.73229 11.5664 3.76707 11.5516 3.80382 11.5481V11.5451H6.83882L6.85982 11.5461C6.93882 11.5561 6.99482 11.6301 6.99382 11.7101V11.7141L6.67782 13.0851C6.66082 13.1631 6.58282 13.2201 6.49382 13.2201H6.11282C6.09906 13.2202 6.08569 13.2247 6.0747 13.233C6.06372 13.2413 6.05569 13.2529 6.05182 13.2661C5.69982 14.4601 5.22282 15.2821 4.59382 15.7751C4.05782 16.1951 3.39882 16.3911 2.51682 16.3911C1.72482 16.3911 1.19082 16.1361 0.737822 15.6331C0.139822 14.9671 -0.107178 13.8791 0.0428215 12.5661C0.312822 10.1031 1.58882 7.61809 4.04682 7.61809ZM21.0158 7.75009C23.0258 7.75009 24.0298 8.66209 23.9988 10.4611C23.9618 12.5691 22.6778 14.1191 20.7448 14.4771C20.4695 14.5257 20.1918 14.5484 19.9118 14.5451L18.9778 14.5411C18.9628 14.5415 18.9484 14.5477 18.9377 14.5582C18.9269 14.5688 18.9206 14.583 18.9198 14.5981C18.9198 14.6081 18.9225 14.6177 18.9278 14.6271C18.934 14.6351 18.9415 14.6422 18.9498 14.6481L19.7438 15.0621C19.8092 15.0974 19.8345 15.1521 19.8198 15.2261L19.6128 16.1591C19.5958 16.2371 19.5328 16.2821 19.4418 16.2821H17.7388C17.7144 16.2814 17.6904 16.2764 17.6678 16.2671C17.646 16.2561 17.6263 16.2412 17.6098 16.2231C17.5974 16.2085 17.5887 16.1912 17.5844 16.1726C17.58 16.154 17.5802 16.1346 17.5848 16.1161L19.4808 7.87509C19.4998 7.78909 19.5808 7.75109 19.6528 7.75109L21.0158 7.75009ZM17.2728 7.76209C17.2914 7.77042 17.3086 7.78155 17.3238 7.79509C17.3378 7.81054 17.3493 7.82809 17.3578 7.84709C17.3644 7.86609 17.3681 7.88598 17.3688 7.90609L17.3578 16.1191C17.3609 16.1384 17.3599 16.1582 17.3548 16.1771C17.349 16.1974 17.3388 16.2161 17.3247 16.2318C17.3107 16.2476 17.2933 16.26 17.2738 16.2681C17.2538 16.2774 17.2319 16.2818 17.2098 16.2811H15.3968C15.3554 16.281 15.3156 16.2649 15.2858 16.2361C15.2723 16.2208 15.2612 16.2036 15.2528 16.1851C15.2458 16.1658 15.2417 16.1456 15.2408 16.1251L15.2798 15.3281C15.2818 15.2411 15.2798 15.2171 15.2288 15.2111L15.1608 15.2091H13.4468C13.3228 15.2091 13.3138 15.2201 13.2698 15.3341L12.9138 16.1911C12.8818 16.2511 12.8178 16.2811 12.7218 16.2811H10.9268C10.8178 16.2811 10.7398 16.1731 10.7808 16.0721L14.4988 7.87309C14.5238 7.82409 14.5618 7.75009 14.6478 7.75009H17.2138C17.2338 7.75009 17.2535 7.75409 17.2728 7.76209ZM15.4998 9.98509C15.4918 9.95309 15.4658 9.95609 15.4448 9.99809C15.4299 10.0284 15.4166 10.0594 15.4048 10.0911L14.1208 13.2741L14.1048 13.3221C14.1035 13.3287 14.1032 13.3351 14.1038 13.3411L14.1108 13.3581C14.1148 13.3632 14.1199 13.3673 14.1258 13.3701C14.131 13.3733 14.1368 13.3754 14.1428 13.3761L15.2148 13.3901C15.3338 13.3801 15.3398 13.3741 15.3518 13.2531C15.3538 13.2101 15.5058 10.0221 15.4998 9.98509ZM20.1118 9.58209C20.0968 9.58255 20.0826 9.58862 20.0718 9.59909C20.061 9.60967 20.0546 9.62396 20.0538 9.63909C20.054 9.64945 20.0568 9.6596 20.0621 9.66854C20.0674 9.67748 20.0748 9.6849 20.0838 9.69009L20.9258 10.1351C20.9678 10.1581 20.9688 10.1981 20.9548 10.2671C20.9478 10.2981 20.4148 12.6421 20.4158 12.6441C20.4188 12.6471 20.4348 12.6551 20.5148 12.6551H20.5508C21.4458 12.6191 21.9338 11.5611 21.9518 10.5341C21.9608 9.97909 21.7718 9.63809 21.4288 9.58809L21.3578 9.58209H20.1118Z" fill="black"/>
</svg>
