<svg width="16" height="16" viewBox="0 0 16 16" fill="none" xmlns="http://www.w3.org/2000/svg">
<g clip-path="url(#clip0_2435_1039)">
<path d="M2.83337 0.199951H13.1666C14.7334 0.199951 16 1.46658 16 3.03333V12.9666C16 14.5333 14.7334 15.8 13.1666 15.8H2.83337C1.26662 15.8 0 14.5333 0 12.9666V3.03333C0 1.46658 1.26662 0.199951 2.83337 0.199951Z" fill="#001E36"/>
<path d="M5.73347 4.16663C5.53347 4.16663 5.33347 4.16663 5.12685 4.17338C4.9201 4.18 4.72672 4.18 4.54672 4.18675C4.36672 4.19338 4.2001 4.19338 4.0401 4.2C3.88672 4.20663 3.7801 4.20663 3.66672 4.20663C3.6201 4.20663 3.6001 4.23325 3.6001 4.28V11.14C3.6001 11.2 3.62672 11.2268 3.6801 11.2268H4.97347C5.0201 11.22 5.05347 11.18 5.04672 11.1334V8.99338C5.17335 8.99338 5.26672 8.99338 5.33347 9C5.4001 9.00663 5.50672 9.00663 5.66672 9.00663C6.21347 9.00663 6.71347 8.94663 7.16672 8.78C7.6001 8.62 7.97347 8.34 8.2401 7.96663C8.50676 7.59329 8.6401 7.11996 8.6401 6.54663C8.6401 6.24663 8.58685 5.96 8.48685 5.68C8.38089 5.39474 8.21489 5.13556 8.0001 4.92C7.74658 4.67371 7.4414 4.48694 7.10672 4.37325C6.73335 4.23325 6.2801 4.16663 5.73347 4.16663ZM5.88222 5.47975C6.11972 5.48425 6.35097 5.52575 6.56672 5.61325C6.7601 5.68663 6.9201 5.82 7.03347 5.99325C7.1398 6.17255 7.19299 6.37838 7.18685 6.58675C7.18685 6.88 7.1201 7.10675 6.9801 7.27338C6.83335 7.44 6.64672 7.56675 6.43347 7.62675C6.18672 7.70675 5.92672 7.74663 5.66672 7.74663H5.31335C5.23335 7.74663 5.14685 7.74 5.05347 7.73338V5.49338C5.1001 5.48663 5.19347 5.48 5.32685 5.48675C5.45347 5.48 5.60672 5.48 5.7801 5.48C5.81426 5.47917 5.84831 5.47908 5.88222 5.47975ZM11.4735 5.82013C11.0001 5.82013 10.6067 5.89338 10.2935 6.05338C10.0068 6.18675 9.7601 6.4 9.59347 6.66663C9.44685 6.91338 9.36672 7.18663 9.36672 7.47338C9.36102 7.70922 9.41371 7.94281 9.5201 8.15338C9.64478 8.37758 9.8179 8.57116 10.0268 8.72C10.3201 8.92059 10.6384 9.08195 10.9735 9.2C11.3001 9.32663 11.5201 9.42663 11.6268 9.51325C11.7335 9.6 11.7868 9.68663 11.7868 9.78C11.7868 9.9 11.7135 10.0134 11.6068 10.06C11.4868 10.12 11.3068 10.1534 11.0535 10.1534C10.7868 10.1534 10.5201 10.12 10.2667 10.0534C9.9758 9.9884 9.69686 9.87819 9.4401 9.72675C9.4201 9.71338 9.4001 9.70675 9.3801 9.72013C9.3601 9.73338 9.35347 9.76 9.35347 9.78V10.94C9.34685 10.9934 9.3801 11.04 9.42685 11.0666C9.64304 11.1676 9.87171 11.2394 10.1068 11.28C10.4068 11.34 10.7067 11.3666 11.0133 11.3666C11.4933 11.3666 11.8935 11.2934 12.2201 11.1534C12.5201 11.0334 12.7801 10.8268 12.9667 10.56C13.1415 10.2978 13.2322 9.98848 13.2267 9.67338C13.2333 9.43534 13.1806 9.1994 13.0735 8.98675C12.9467 8.76 12.7667 8.57338 12.5467 8.43338C12.2249 8.23126 11.8803 8.06788 11.5201 7.94663C11.3593 7.88005 11.2013 7.80665 11.0467 7.72663C10.9601 7.68 10.8801 7.62 10.8201 7.54663C10.7801 7.49325 10.7535 7.43338 10.7535 7.37338C10.7535 7.31338 10.7735 7.24675 10.8067 7.19338C10.8535 7.12675 10.9267 7.08 11.0133 7.06C11.1401 7.02675 11.2801 7.00663 11.4133 7.01325C11.6667 7.01325 11.9133 7.04663 12.1601 7.1C12.3868 7.14663 12.6001 7.22 12.8001 7.32675C12.8267 7.34 12.8601 7.34 12.9201 7.32675C12.9305 7.31903 12.939 7.30896 12.9448 7.29737C12.9506 7.28577 12.9535 7.27297 12.9535 7.26V6.17338C12.9535 6.14663 12.9467 6.12 12.9401 6.09338C12.9267 6.06675 12.9001 6.04 12.8735 6.03338C12.6896 5.95822 12.4969 5.90669 12.3001 5.88C12.0264 5.84014 11.7501 5.82022 11.4735 5.82013Z" fill="#31A8FF"/>
</g>
<defs>
<clipPath id="clip0_2435_1039">
<rect width="16" height="16" fill="white"/>
</clipPath>
</defs>
</svg>
