<svg width="14" height="13" viewBox="0 0 14 13" fill="none" xmlns="http://www.w3.org/2000/svg">
<path d="M7 4.2467C10.722 4.2467 13 5.5417 13 6.2467C13 6.9517 10.722 8.2467 7 8.2467C3.278 8.2467 1 6.9517 1 6.2467C1 5.5417 3.278 4.2467 7 4.2467ZM7 3.2467C3.134 3.2467 0 4.5897 0 6.2467C0 7.9037 3.134 9.2467 7 9.2467C10.866 9.2467 14 7.9037 14 6.2467C14 4.5897 10.866 3.2467 7 3.2467Z" fill="#00BCD4"/>
<path d="M7 5.2467C6.80222 5.2467 6.60888 5.30535 6.44443 5.41523C6.27998 5.52512 6.15181 5.68129 6.07612 5.86402C6.00043 6.04675 5.98063 6.24781 6.01922 6.44179C6.0578 6.63578 6.15304 6.81396 6.29289 6.95381C6.43275 7.09366 6.61093 7.1889 6.80491 7.22749C6.99889 7.26607 7.19996 7.24627 7.38268 7.17058C7.56541 7.0949 7.72159 6.96672 7.83147 6.80227C7.94135 6.63783 8 6.44449 8 6.2467C8 5.98149 7.89464 5.72713 7.70711 5.5396C7.51957 5.35206 7.26522 5.2467 7 5.2467Z" fill="#00BCD4"/>
<path d="M4.22882 1.00024C5.23732 1.00024 7.19732 2.58874 8.73182 5.24674C10.5928 8.47024 10.6103 11.0902 9.99982 11.4427C9.9294 11.4793 9.85057 11.4965 9.77132 11.4927C8.76282 11.4927 6.80232 9.90474 5.26782 7.24674C3.40682 4.02324 3.38932 1.40324 3.99982 1.05074C4.0704 1.01414 4.14941 0.996389 4.22882 1.00024ZM4.22832 0.000744104C3.9735 -0.00386673 3.72205 0.0594705 3.49982 0.184244C2.06482 1.01274 2.46882 4.39874 4.40182 7.74674C6.04382 10.5917 8.26182 12.4932 9.77182 12.4932C10.0266 12.4975 10.2778 12.4338 10.4998 12.3087C11.9348 11.4807 11.5308 8.09474 9.59782 4.74674C7.95582 1.90174 5.73782 0.000244141 4.22782 0.000244141L4.22832 0.000744104Z" fill="#00BCD4"/>
<path d="M9.7717 1.0002C9.85094 0.996439 9.92977 1.01369 10.0002 1.0502C10.6107 1.4032 10.5932 4.0232 8.7322 7.2467C7.1972 9.9047 5.2372 11.4932 4.2287 11.4932C4.14946 11.497 4.07063 11.4797 4.0002 11.4432C3.3897 11.0897 3.4072 8.4697 5.2682 5.2467C6.8032 2.5887 8.7632 1.0002 9.7717 1.0002ZM9.7717 0.000204743C8.2617 0.000204743 6.0442 1.9022 4.4017 4.7467C2.4697 8.0947 2.0652 11.4807 3.5002 12.3087C3.72233 12.4338 3.97379 12.4975 4.2287 12.4932C5.7387 12.4932 7.9562 10.5912 9.5987 7.7467C11.5307 4.3987 11.9352 1.0127 10.5002 0.184705C10.2781 0.0595826 10.0266 -0.00410126 9.7717 0.000204743Z" fill="#00BCD4"/>
</svg>
