<svg width="26" height="16" viewBox="0 0 26 16" fill="none" xmlns="http://www.w3.org/2000/svg">
<path d="M12.9995 0C9.53291 0 7.36707 1.73259 6.49976 5.1992C7.7993 3.4664 9.31638 2.81663 11.0492 3.24988C12.0386 3.49646 12.7456 4.21387 13.5286 5.00887C14.803 6.30212 16.278 7.7993 19.4993 7.7993C22.9657 7.7993 25.1317 6.06651 25.999 2.59909C24.6991 4.33276 23.1825 4.98288 21.4494 4.54942C20.4602 4.30264 19.754 3.58543 18.9699 2.79043C17.6964 1.49718 16.2218 0 12.9995 0ZM6.49976 7.7993C3.03335 7.7993 0.867311 9.5321 0 12.9995C1.29982 11.2658 2.81629 10.6157 4.54942 11.0492C5.53881 11.296 6.24586 12.0132 7.02888 12.8082C8.30323 14.1014 9.77827 15.5986 12.9995 15.5986C16.4659 15.5986 18.632 13.866 19.4993 10.3994C18.1993 12.1323 16.6828 12.782 14.9496 12.3487C13.9605 12.1021 13.2542 11.3847 12.4702 10.5897C11.1966 9.29648 9.72201 7.7993 6.49976 7.7993Z" fill="#38BDF8"/>
</svg>
